<svg xmlns="http://www.w3.org/2000/svg" width="64" height="64" viewBox="0 0 64 64">
  <path
    d="M12 16c0-2.209 1.791-4 4-4h14c4.418 0 8 3.582 8 8v30.9c-2.516-1.99-5.695-3.2-9.15-3.2H16c-2.209 0-4-1.791-4-4V16z"
    fill="#0b0f19"
  />
  <path
    d="M52 16c0-2.209-1.791-4-4-4H34c-4.418 0-8 3.582-8 8v30.9c2.516-1.99 5.695-3.2 9.15-3.2H48c2.209 0 4-1.791 4-4V16z"
    fill="#0b0f19"
    fill-opacity="0.9"
  />
  <path
    d="M32 18.5c-1.8 0-3.4.5-4.8 1.4a.9.9 0 0 0 1 1.5c1.1-.7 2.4-1.1 3.8-1.1 1.4 0 2.7.4 3.8 1.1a.9.9 0 1 0 1-1.5c-1.4-.9-3-1.4-4.8-1.4z"
    fill="#ffffff"
    fill-opacity="0.9"
  />
</svg>
